<svg width="11" height="9" viewBox="0 0 11 9" fill="none" xmlns="http://www.w3.org/2000/svg">
<path d="M10.8013 1.44849L9.83615 0.483349C9.70381 0.350912 9.54286 0.284668 9.35368 0.284668C9.16432 0.284668 9.00337 0.350912 8.87103 0.483349L4.21548 5.14593L2.12902 3.05236C1.99653 2.91987 1.83568 2.8537 1.6465 2.8537C1.45719 2.8537 1.29634 2.91987 1.16385 3.05236L0.198706 4.01753C0.0662188 4.14999 0 4.31089 0 4.50017C0 4.68931 0.0662188 4.85036 0.198706 4.9828L2.76769 7.55173L3.73291 8.51688C3.86532 8.64941 4.02622 8.71558 4.21548 8.71558C4.40467 8.71558 4.56557 8.64924 4.69805 8.51688L5.66325 7.55173L10.8013 2.41371C10.9337 2.28122 11 2.12035 11 1.93106C11.0001 1.74188 10.9337 1.58098 10.8013 1.44849Z" fill="white"/>
</svg>
