<svg width="16" height="16" viewBox="0 0 16 16" fill="none" xmlns="http://www.w3.org/2000/svg">
<g clip-path="url(#clip0)">
<path d="M3.96835 10.7614C3.19266 10.7614 2.56157 11.3924 2.56157 12.1681C2.56157 12.9438 3.19266 13.5749 3.96835 13.5749C4.74404 13.5749 5.37514 12.9438 5.37514 12.1681C5.37514 11.3924 4.74407 10.7614 3.96835 10.7614ZM3.96835 12.6371C3.70979 12.6371 3.49942 12.4267 3.49942 12.1681C3.49942 11.9096 3.70979 11.6992 3.96835 11.6992C4.22692 11.6992 4.43729 11.9096 4.43729 12.1681C4.43726 12.4267 4.22695 12.6371 3.96835 12.6371Z" fill="white"/>
<path d="M15.8602 0.778109C15.8489 0.543483 15.6677 0.355295 15.4367 0.333858C15.4358 0.333764 15.435 0.333577 15.4341 0.333514L11.7304 0.00188847C11.4919 -0.0194553 11.2756 0.142295 11.2287 0.377046L10.9586 1.72814L9.60701 1.99861C9.42139 2.03574 9.27633 2.18086 9.2392 2.36646L8.96895 3.71777L7.61798 3.98774C7.45498 4.0203 7.32142 4.13674 7.26692 4.29374L6.71367 5.88684C4.92291 5.37378 2.979 5.86265 1.64728 7.19434C-0.363882 9.2055 -0.363882 12.478 1.64728 14.4891C2.62153 15.4634 3.91691 16 5.29469 16C8.14676 16 10.4529 13.6871 10.4529 10.8417C10.4529 10.2932 10.3676 9.75788 10.2038 9.2506L15.7222 3.78637C15.8112 3.6983 15.8612 3.5783 15.8612 3.45315V0.800578C15.8612 0.793015 15.8605 0.785609 15.8602 0.778109ZM5.29472 15.0621C4.16738 15.0622 3.10756 14.6232 2.31044 13.8261C0.664933 12.1806 0.664933 9.50313 2.31044 7.85759C3.11478 7.05328 4.19213 6.625 5.29101 6.625C5.80913 6.625 6.33229 6.72031 6.83345 6.91634C7.08104 7.01319 7.35995 6.88478 7.44723 6.6335L8.06486 4.85493L9.45936 4.57624C9.64501 4.53915 9.79017 4.39402 9.8273 4.2084L10.0976 2.85699L11.4492 2.58652C11.6348 2.54939 11.7799 2.40424 11.817 2.21861L12.0659 0.973609L14.346 1.17773L8.28032 7.193C8.09601 7.37581 8.09532 7.67397 8.27895 7.85753C10.918 10.4966 9.05676 15.0621 5.29472 15.0621ZM14.9234 3.25765L9.80173 8.32894C9.64701 8.05244 9.46623 7.78903 9.26005 7.54219L14.9234 1.92605V3.25765Z" fill="white"/>
</g>
<defs>
<clipPath id="clip0">
<rect width="16" height="16" fill="white"/>
</clipPath>
</defs>
</svg>
