<svg width="85" height="87" viewBox="0 0 85 87" fill="none" xmlns="http://www.w3.org/2000/svg">
<path d="M41.6702 0H44.5452V8.625H41.6702V0Z" fill="#1E1E25"/>
<path d="M10.0452 28.75H12.9202V7.73657L0 14.1967L10.0452 20.894V28.75Z" fill="#1E1E25"/>
<path d="M73.2953 28.75H76.1703V7.73657L63.25 14.1967L73.2953 20.894V28.75Z" fill="#1E1E25"/>
<path d="M18.6702 28.75H21.5453V31.625H18.6702V28.75Z" fill="#1E1E25"/>
<path d="M24.4202 28.75H27.2952V31.625H24.4202V28.75Z" fill="#1E1E25"/>
<path d="M30.1702 28.75H33.0452V31.625H30.1702V28.75Z" fill="#1E1E25"/>
<path d="M38.1354 11.71C29.8224 12.7708 22.6521 18.1284 19.3214 25.8751H30.2565C30.7798 19.1533 34.8249 14.4556 38.1354 11.71Z" fill="#1E1E25"/>
<path d="M47.4202 40.25H50.2952V51.75H47.4202V40.25Z" fill="#1E1E25"/>
<path d="M44.5452 54.625H47.4202V57.5H44.5452V54.625Z" fill="#1E1E25"/>
<path d="M38.7952 54.625H41.6702V57.5H38.7952V54.625Z" fill="#1E1E25"/>
<path d="M50.2952 54.625H53.1702V57.5H50.2952V54.625Z" fill="#1E1E25"/>
<path d="M21.5453 37.375H30.1703V51.75H33.0453V37.375H41.6703V51.75H44.5453V37.375H53.1703V51.75H56.0453V37.375H64.6703V51.75H67.5453V34.5H18.6702V51.75H21.5453V37.375Z" fill="#1E1E25"/>
<path d="M55.959 25.8751H66.8941C63.5619 18.1284 56.3931 12.7708 48.0786 11.71C51.3906 14.4556 55.4357 19.1533 55.959 25.8751Z" fill="#1E1E25"/>
<path d="M70.4203 37.375H76.1703V46H70.4203V37.375Z" fill="#1E1E25"/>
<path d="M70.4203 51.75H81.9203V31.625H70.4203V34.5H79.0453V48.875H70.4203V51.75Z" fill="#1E1E25"/>
<path d="M58.9202 28.75H61.7952V31.625H58.9202V28.75Z" fill="#1E1E25"/>
<path d="M53.1702 28.75H56.0452V31.625H53.1702V28.75Z" fill="#1E1E25"/>
<path d="M41.6702 28.75H44.5452V31.625H41.6702V28.75Z" fill="#1E1E25"/>
<path d="M47.4202 28.75H50.2952V31.625H47.4202V28.75Z" fill="#1E1E25"/>
<path d="M35.9202 28.75H38.7952V31.625H35.9202V28.75Z" fill="#1E1E25"/>
<path d="M53.0797 25.8749C52.3063 17.7947 45.2741 13.0021 43.1077 11.7126C40.94 13.0006 33.9092 17.7947 33.1358 25.8749H53.0797Z" fill="#1E1E25"/>
<path d="M64.6703 28.75H67.5453V31.625H64.6703V28.75Z" fill="#1E1E25"/>
<path d="M27.2952 86.25H30.1703V69H41.6703V86.25H44.5453V69H56.0453V86.25H58.9203V66.125H27.2952V86.25Z" fill="#1E1E25"/>
<path d="M27.2952 60.375H58.9203V63.25H27.2952V60.375Z" fill="#1E1E25"/>
<path d="M33.0452 71.875H38.7952V86.25H33.0452V71.875Z" fill="#1E1E25"/>
<path d="M47.4202 71.875H53.1702V86.25H47.4202V71.875Z" fill="#1E1E25"/>
<path d="M56.0452 54.625H58.9202V57.5H56.0452V54.625Z" fill="#1E1E25"/>
<path d="M61.7953 54.625H84.7953V60.375H61.7953V54.625Z" fill="#1E1E25"/>
<path d="M61.7953 86.25H84.7953V63.25H61.7953V86.25ZM66.1078 67.5625H80.4828V81.9375H66.1078V67.5625Z" fill="#1E1E25"/>
<path d="M58.9202 40.25H61.7952V51.75H58.9202V40.25Z" fill="#1E1E25"/>
<path d="M27.2952 54.625H30.1703V57.5H27.2952V54.625Z" fill="#1E1E25"/>
<path d="M10.0452 37.375H15.7952V46H10.0452V37.375Z" fill="#1E1E25"/>
<path d="M15.7952 31.625H4.29525V51.75H15.7952V48.875H7.17025V34.5H15.7952V31.625Z" fill="#1E1E25"/>
<path d="M35.9202 40.25H38.7952V51.75H35.9202V40.25Z" fill="#1E1E25"/>
<path d="M33.0452 54.625H35.9202V57.5H33.0452V54.625Z" fill="#1E1E25"/>
<path d="M24.4202 40.25H27.2952V51.75H24.4202V40.25Z" fill="#1E1E25"/>
<path d="M1.42025 86.25H24.4203V63.25H1.42025V86.25ZM5.73275 67.5625H20.1078V81.9375H5.73275V67.5625Z" fill="#1E1E25"/>
<path d="M1.42025 54.625H24.4203V60.375H1.42025V54.625Z" fill="#1E1E25"/>
</svg>
