<svg width="41" height="41" viewBox="0 0 41 41" fill="none" xmlns="http://www.w3.org/2000/svg">
<path d="M28.7859 0H12.2141C5.47923 0 0 5.47923 0 12.2141V28.7859C0 35.5208 5.47923 41 12.2141 41H28.7859C35.5208 41 41 35.5208 41 28.7859V12.2141C40.9999 5.47923 35.5207 0 28.7859 0ZM36.8754 28.7859C36.8754 33.2536 33.2536 36.8754 28.7859 36.8754H12.2141C7.74644 36.8754 4.1246 33.2536 4.1246 28.7859V12.2141C4.1246 7.74636 7.74644 4.1246 12.2141 4.1246H28.7859C33.2536 4.1246 36.8754 7.74636 36.8754 12.2141V28.7859Z" fill="white"/>
<path d="M20.4999 9.896C14.6528 9.896 9.89587 14.653 9.89587 20.5C9.89587 26.347 14.6528 31.104 20.4999 31.104C26.347 31.104 31.104 26.3471 31.104 20.5C31.104 14.6529 26.347 9.896 20.4999 9.896ZM20.4999 26.9795C16.9214 26.9795 14.0205 24.0786 14.0205 20.5001C14.0205 16.9215 16.9215 14.0206 20.4999 14.0206C24.0785 14.0206 26.9794 16.9215 26.9794 20.5001C26.9794 24.0785 24.0784 26.9795 20.4999 26.9795Z" fill="white"/>
<path d="M31.1246 12.5165C32.5279 12.5165 33.6655 11.3789 33.6655 9.97552C33.6655 8.57219 32.5279 7.43457 31.1246 7.43457C29.7212 7.43457 28.5836 8.57219 28.5836 9.97552C28.5836 11.3789 29.7212 12.5165 31.1246 12.5165Z" fill="white"/>
</svg>
