<svg width="78" height="81" viewBox="0 0 78 81" fill="none" xmlns="http://www.w3.org/2000/svg">
<path d="M14.7812 2.6875H17.4688V12.0938H14.7812V2.6875Z" fill="#1E1E25"/>
<path d="M20.1562 0H22.8438V12.0938H20.1562V0Z" fill="#1E1E25"/>
<path d="M9.40625 5.375H12.0938V12.0938H9.40625V5.375Z" fill="#1E1E25"/>
<path d="M38.9688 0H41.6562V12.0938H38.9688V0Z" fill="#1E1E25"/>
<path d="M33.5938 2.6875H36.2812V12.0938H33.5938V2.6875Z" fill="#1E1E25"/>
<path d="M44.3438 5.375H47.0312V12.0938H44.3438V5.375Z" fill="#1E1E25"/>
<path d="M30.9062 55.0938H38.9688V60.7603L53.75 58.8536V54.8196C53.75 54.1316 53.234 53.5578 52.55 53.4826L5.57387 48.4032C5.39247 48.3844 5.21106 48.375 5.02966 48.375H0V80.625H29.5625V68.7073C29.5625 66.5318 30.5045 64.5632 31.996 63.1562H30.9062V55.0938ZM12.0938 76.5938H4.03125V68.5312H12.0938V76.5938ZM12.0938 63.1562H4.03125V55.0938H12.0938V63.1562ZM25.5312 76.5938H17.4688V68.5312H25.5312V76.5938ZM25.5312 63.1562H17.4688V55.0938H25.5312V63.1562Z" fill="#1E1E25"/>
<path d="M71.2188 16.125C71.2188 13.9024 69.4101 12.0938 67.1875 12.0938C66.7924 12.0938 66.3759 12.1703 65.9123 12.3249L64.6075 12.7643L64.2003 11.4488C63.3256 8.62016 60.7456 6.71875 57.7812 6.71875C54.0765 6.71875 51.0625 9.73278 51.0625 13.4375V20.1562H67.1875C69.4101 20.1562 71.2188 18.3476 71.2188 16.125Z" fill="#1E1E25"/>
<path d="M32.25 14.7812H48.375V17.4688H32.25V14.7812Z" fill="#1E1E25"/>
<path d="M53.75 33.5939H71.2188C73.4413 33.5939 75.25 31.7852 75.25 29.5626C75.25 27.3401 73.4413 25.5314 71.2188 25.5314C70.8237 25.5314 70.4071 25.608 69.9435 25.7638L68.6388 26.2019L68.2316 24.8864C68.0005 24.1379 67.6135 23.466 67.1432 22.8425H56.4724C55.595 24.0049 55.0938 25.4077 55.0938 26.8751V28.2189H53.75C52.2678 28.2189 51.0625 29.4242 51.0625 30.9064C51.0625 32.3885 52.2678 33.5939 53.75 33.5939Z" fill="#1E1E25"/>
<path d="M8.0625 14.7812H24.1875V17.4688H8.0625V14.7812Z" fill="#1E1E25"/>
<path d="M48.375 20.1562H32.25V42.9288L48.375 44.5023V20.1562ZM45.6875 41.6562H34.9375V38.9688H45.6875V41.6562ZM45.6875 36.2812H34.9375V33.5938H45.6875V36.2812ZM45.6875 30.9062H34.9375V28.2188H45.6875V30.9062ZM45.6875 25.5312H34.9375V22.8438H45.6875V25.5312Z" fill="#1E1E25"/>
<path d="M24.1875 20.1562H8.0625V40.5692L24.1875 42.1427V20.1562ZM21.5 36.2812H10.75V33.5937H21.5V36.2812ZM21.5 30.9062H10.75V28.2187H21.5V30.9062ZM21.5 25.5312H10.75V22.8437H21.5V25.5312Z" fill="#1E1E25"/>
<path d="M5.8641 45.7318L52.8389 50.8099C54.8908 51.0343 56.4375 52.757 56.4375 54.8196V58.5069L59.125 58.1602V52.843C59.125 50.2253 57.1591 48.0579 54.5536 47.8039L5.55504 43.0242C5.39379 43.0081 5.22851 43 5.06323 43C3.13495 43 1.47407 44.0965 0.619446 45.6875H5.02963C5.30779 45.6875 5.58729 45.7023 5.8641 45.7318Z" fill="#1E1E25"/>
<path d="M59.125 72.5626H67.1875V65.1047L59.125 66.001V72.5626Z" fill="#1E1E25"/>
<path d="M59.125 75.25H67.1875V80.625H59.125V75.25Z" fill="#1E1E25"/>
<path d="M69.875 75.25H77.9375V80.625H69.875V75.25Z" fill="#1E1E25"/>
<path d="M72.9119 64.5C72.7264 64.5 72.5423 64.5107 72.3582 64.5296L69.875 64.8064V72.5625H77.9375V64.5H72.9119Z" fill="#1E1E25"/>
<path d="M48.375 72.5627H56.4375V66.3008L48.375 67.1957V72.5627Z" fill="#1E1E25"/>
<path d="M48.375 75.25H56.4375V80.625H48.375V75.25Z" fill="#1E1E25"/>
<path d="M37.625 69.5927V72.5624H45.6875V67.4951L38.8209 68.2584C38.1383 68.3336 37.625 68.9074 37.625 69.5927Z" fill="#1E1E25"/>
<path d="M72.0667 61.8582C72.3502 61.8286 72.631 61.8125 72.9119 61.8125H77.3557C76.5252 60.2242 74.8805 59.125 72.967 59.125C72.756 59.125 72.545 59.1384 72.3354 59.1653L36.5823 63.7798C34.1124 64.0969 32.25 66.216 32.25 68.7073V80.625H34.9375V69.5928C34.9375 67.5355 36.4788 65.8128 38.524 65.5871L72.0667 61.8582Z" fill="#1E1E25"/>
<path d="M37.625 75.25H45.6875V80.625H37.625V75.25Z" fill="#1E1E25"/>
</svg>
