<svg width="28" height="28" viewBox="0 0 28 28" fill="none" xmlns="http://www.w3.org/2000/svg">
<path d="M25.0469 7.92969H2.95312C1.59616 7.92969 0.492188 9.03366 0.492188 10.3906V20.2344C0.492188 21.5913 1.59616 22.6953 2.95312 22.6953H25.0469C26.4038 22.6953 27.5078 21.5913 27.5078 20.2344V10.3906C27.5078 9.03366 26.4038 7.92969 25.0469 7.92969ZM6.98584 16.5888C6.77611 16.5888 6.4178 16.5903 6.0824 16.592V18.484C6.0824 18.937 5.71512 19.3043 5.26209 19.3043C4.80905 19.3043 4.44177 18.937 4.44177 18.484L4.42969 12.2526C4.42898 12.0346 4.51511 11.8253 4.669 11.6709C4.82289 11.5164 5.03202 11.4297 5.25 11.4297H6.98584C8.42718 11.4297 9.59984 12.5869 9.59984 14.0092C9.59984 15.4316 8.42718 16.5888 6.98584 16.5888ZM14.0278 19.1065C13.5393 19.115 12.3172 19.1197 12.2654 19.1199C12.2643 19.1199 12.2633 19.1199 12.2622 19.1199C12.0458 19.1199 11.838 19.0344 11.6844 18.8818C11.5299 18.7285 11.4428 18.5201 11.4419 18.3025C11.4419 18.2807 11.4297 12.2516 11.4297 12.2516C11.4293 12.0338 11.5155 11.8247 11.6694 11.6705C11.8233 11.5164 12.0322 11.4297 12.25 11.4297H13.9634C15.9153 11.4297 17.2267 12.9749 17.2267 15.2748C17.2267 17.4626 15.8814 19.0741 14.0278 19.1065ZM22.4339 14.402C22.8869 14.402 23.2542 14.7692 23.2542 15.2223C23.2542 15.6753 22.8869 16.0426 22.4339 16.0426H20.9453V18.375C20.9453 18.828 20.578 19.1953 20.125 19.1953C19.672 19.1953 19.3047 18.828 19.3047 18.375V12.1867C19.3047 11.7336 19.672 11.3664 20.125 11.3664H22.6331C23.0862 11.3664 23.4534 11.7336 23.4534 12.1867C23.4534 12.6397 23.0862 13.007 22.6331 13.007H20.9453V14.402H22.4339Z" fill="#1E1E25"/>
<path d="M13.9633 13.0703H13.0718C13.073 13.8108 13.0775 16.7625 13.0798 17.475C13.4212 17.4728 13.7867 17.4698 13.9992 17.4661C15.0954 17.447 15.5861 16.3517 15.5861 15.2748C15.586 14.7576 15.4691 13.0703 13.9633 13.0703Z" fill="#1E1E25"/>
<path d="M6.98585 13.0703H6.07278C6.07377 13.4354 6.0747 13.8237 6.0747 14.0092C6.0747 14.2261 6.07623 14.6022 6.07798 14.9514C6.41464 14.9497 6.77426 14.9482 6.9859 14.9482C7.51353 14.9482 7.95928 14.5182 7.95928 14.0092C7.95928 13.5003 7.51347 13.0703 6.98585 13.0703Z" fill="#1E1E25"/>
<path d="M24.1968 6.28906C24.0066 5.76789 23.7113 5.2862 23.3203 4.87375L19.913 1.27963C19.142 0.46643 18.0571 0 16.9364 0H6.01562C4.65866 0 3.55469 1.10398 3.55469 2.46094V6.28906H24.1968Z" fill="#1E1E25"/>
<path d="M3.55469 24.3359V25.5391C3.55469 26.896 4.65866 28 6.01562 28H21.9844C23.3413 28 24.4453 26.896 24.4453 25.5391V24.3359H3.55469Z" fill="#1E1E25"/>
</svg>
