<svg width="90" height="87" viewBox="0 0 90 87" fill="none" xmlns="http://www.w3.org/2000/svg">
<path d="M54.9219 32.6562H66.7969V50.4688H54.9219V32.6562Z" fill="#1E1E25"/>
<path d="M51.9531 53.4375H60.8594V62.3438H51.9531V53.4375Z" fill="#1E1E25"/>
<path d="M63.8281 53.4375H72.7344V62.3438H63.8281V53.4375Z" fill="#1E1E25"/>
<path d="M40.0781 50.4688V23.75H4.45312V50.4688H19.2969V29.6875H37.1094V50.4688H40.0781ZM14.8438 46.0156H8.90625V40.0781H14.8438V46.0156ZM14.8438 34.1406H8.90625V28.2031H14.8438V34.1406Z" fill="#1E1E25"/>
<path d="M16.3281 53.4375H25.2344V62.3438H16.3281V53.4375Z" fill="#1E1E25"/>
<path d="M84.6094 23.75H48.9844V50.4688H51.9531V29.6875H69.7656V50.4688H84.6094V23.75ZM80.1562 46.0156H74.2188V40.0781H80.1562V46.0156ZM80.1562 34.1406H74.2188V28.2031H80.1562V34.1406Z" fill="#1E1E25"/>
<path d="M75.7031 53.4375H84.6094V62.3438H75.7031V53.4375Z" fill="#1E1E25"/>
<path d="M66.7968 3.20922L79.2567 14.8438H85.0502L67.732 0H65.8617L48.5435 14.8438H54.337L66.7968 3.20922Z" fill="#1E1E25"/>
<path d="M58.6863 14.8438H74.9075L66.7969 7.27051L58.6863 14.8438Z" fill="#1E1E25"/>
<path d="M46.0156 17.8125H87.5781V20.7812H46.0156V17.8125Z" fill="#1E1E25"/>
<path d="M28.2031 53.4375H37.1094V62.3438H28.2031V53.4375Z" fill="#1E1E25"/>
<path d="M22.2656 32.6562H34.1406V50.4688H22.2656V32.6562Z" fill="#1E1E25"/>
<path d="M1.48438 17.8125H43.0469V20.7812H1.48438V17.8125Z" fill="#1E1E25"/>
<path d="M0 86.0938H89.0625V65.3125H0V86.0938ZM63.8281 72.7344H84.6094V78.6719H63.8281V72.7344ZM34.1406 72.7344H54.9219V78.6719H34.1406V72.7344ZM4.45312 72.7344H25.2344V78.6719H4.45312V72.7344Z" fill="#1E1E25"/>
<path d="M13.0194 14.8439H31.5118L22.2656 7.16968L13.0194 14.8439Z" fill="#1E1E25"/>
<path d="M40.0781 53.4375H48.9844V62.3438H40.0781V53.4375Z" fill="#1E1E25"/>
<path d="M43.0469 23.75H46.0156V50.4688H43.0469V23.75Z" fill="#1E1E25"/>
<path d="M4.45312 53.4375H13.3594V62.3438H4.45312V53.4375Z" fill="#1E1E25"/>
<path d="M22.2656 3.31016L36.1609 14.8438H40.519L23.2008 0H21.3305L4.01227 14.8438H8.37039L22.2656 3.31016Z" fill="#1E1E25"/>
</svg>
