<svg width="89" height="89" viewBox="0 0 89 89" fill="none" xmlns="http://www.w3.org/2000/svg">
<path d="M44.4062 70.4375C40.1846 70.4375 36.75 73.8721 36.75 78.0938V88.8125H52.0625V78.0938C52.0625 73.8721 48.6279 70.4375 44.4062 70.4375Z" fill="#1E1E25"/>
<path d="M27.5625 61.25H61.25V45.9375H27.5625V61.25ZM47.4688 50.5312H56.6562V56.6562H47.4688V50.5312ZM32.1562 50.5312H41.3438V56.6562H32.1562V50.5312Z" fill="#1E1E25"/>
<path d="M27.5625 88.8125H33.6875V78.0938C33.6875 72.1847 38.4956 67.375 44.4062 67.375C50.3169 67.375 55.125 72.1847 55.125 78.0938V88.8125H61.25V64.3125H27.5625V88.8125Z" fill="#1E1E25"/>
<path d="M18.375 21.4375H70.4375V24.5H18.375V21.4375Z" fill="#1E1E25"/>
<path d="M21.4375 27.5625H24.5V88.8125H21.4375V27.5625Z" fill="#1E1E25"/>
<path d="M44.4062 3.15897L62.8823 18.375H67.7011L45.3878 0H43.4247L21.1113 18.375H25.9302L44.4062 3.15897Z" fill="#1E1E25"/>
<path d="M30.746 18.375H58.0665L44.4063 7.12646L30.746 18.375Z" fill="#1E1E25"/>
<path d="M0 42.875H18.375V45.9375H0V42.875Z" fill="#1E1E25"/>
<path d="M0 88.8125H18.375V49H0V88.8125ZM4.59375 53.5938H13.7812V59.7188H4.59375V53.5938ZM4.59375 65.8438H13.7812V71.9688H4.59375V65.8438ZM4.59375 78.0938H13.7812V84.2188H4.59375V78.0938Z" fill="#1E1E25"/>
<path d="M70.4375 88.8125H88.8125V49H70.4375V88.8125ZM75.0312 53.5938H84.2188V59.7188H75.0312V53.5938ZM75.0312 65.8438H84.2188V71.9688H75.0312V65.8438ZM75.0312 78.0938H84.2188V84.2188H75.0312V78.0938Z" fill="#1E1E25"/>
<path d="M70.4375 42.875H88.8125V45.9375H70.4375V42.875Z" fill="#1E1E25"/>
<path d="M64.3125 27.5625H67.375V88.8125H64.3125V27.5625Z" fill="#1E1E25"/>
<path d="M27.5625 42.875H61.25V27.5625H27.5625V42.875ZM47.4688 32.1562H56.6562V38.2812H47.4688V32.1562ZM32.1562 32.1562H41.3438V38.2812H32.1562V32.1562Z" fill="#1E1E25"/>
</svg>
