<svg width="60" height="60" viewBox="0 0 60 60" fill="none" xmlns="http://www.w3.org/2000/svg">
<path d="M2.97302 25.6305L30 4.0089L57.0269 25.6305C57.3511 25.8898 57.7387 26.0158 58.1238 26.0158C58.6394 26.0158 59.1505 25.7898 59.4976 25.3559C60.1042 24.5978 59.9812 23.4917 59.223 22.8852L31.098 0.385225C30.4559 -0.128408 29.5439 -0.128408 28.9019 0.385225L0.776925 22.8852C0.0187219 23.4917 -0.104208 24.5978 0.502355 25.3559C1.1088 26.114 2.21505 26.2373 2.97302 25.6305Z" fill="#1E1E25"/>
<path d="M0 58.2422C0 59.213 0.787031 60 1.75781 60H58.2422C59.213 60 60 59.213 60 58.2422V54.4922H0V58.2422Z" fill="#1E1E25"/>
<path d="M44.0625 3.51563H44.6484V6.72328L51.6797 12.3483V3.51563H52.2656C53.2364 3.51563 54.0234 2.72859 54.0234 1.75781C54.0234 0.787031 53.2364 0 52.2656 0H44.0625C43.0917 0 42.3047 0.787031 42.3047 1.75781C42.3047 2.72859 43.0917 3.51563 44.0625 3.51563Z" fill="#1E1E25"/>
<path d="M31.7578 35.1562H38.9062V50.9766H31.7578V35.1562Z" fill="#1E1E25"/>
<path d="M21.0938 35.1562H28.2422V50.9766H21.0938V35.1562Z" fill="#1E1E25"/>
<path d="M58.2422 43.9453H44.1797C43.2089 43.9453 42.4219 44.7323 42.4219 45.7031V50.9766H45.9375V47.4609H49.4531V50.9766H52.9688V47.4609H56.4844V50.9766H60V45.7031C60 44.7323 59.213 43.9453 58.2422 43.9453Z" fill="#1E1E25"/>
<path d="M3.51562 47.4609H7.03125V50.9766H10.5469V47.4609H14.0625V50.9766H17.5781V45.7031C17.5781 44.7323 16.7911 43.9453 15.8203 43.9453H1.75781C0.787031 43.9453 0 44.7323 0 45.7031V50.9766H3.51562V47.4609Z" fill="#1E1E25"/>
<path d="M44.1797 40.4298H52.9688V26.8862L30 8.51123L7.03125 26.8862V40.4298H15.8203C16.4366 40.4298 17.0279 40.537 17.5781 40.7322V35.1564C17.5781 33.2148 19.1522 31.6408 21.0938 31.6408H40.6641C41.6348 31.6408 42.4219 32.4278 42.4219 33.3986V40.7337C42.9722 40.5383 43.5632 40.4298 44.1797 40.4298Z" fill="#1E1E25"/>
</svg>
