<svg width="27" height="27" viewBox="0 0 27 27" fill="none" xmlns="http://www.w3.org/2000/svg">
<path d="M24.7174 19.9089L24.7174 19.9089C25.2104 20.4019 25.2774 21.3499 24.6914 22.0416L22.2398 24.4932L22.9469 25.2004L22.2398 24.4933C21.8263 24.9067 21.1904 25.1624 20.2616 25.1641C19.3244 25.1659 18.1583 24.9049 16.8227 24.3568C14.1551 23.2619 11.0024 21.1002 8.00563 18.1035C5.01217 15.11 2.88266 11.9589 1.80318 9.29103C1.26278 7.95547 1.0035 6.78535 1.00004 5.84205C0.996612 4.90927 1.24013 4.27054 1.62594 3.85933L4.09355 1.39172C4.58653 0.898744 5.53452 0.831738 6.22628 1.41779L9.85149 5.043C10.6561 5.84757 10.282 7.13635 9.35169 7.4226L9.3406 7.42602L9.32959 7.42969C7.73441 7.96134 6.55749 9.75119 7.11801 11.5196C7.51526 13.1337 8.69416 14.8076 10.0353 16.1317C11.3884 17.4677 13.073 18.6117 14.6194 18.9983L14.6321 19.0015L14.6449 19.0044C16.2711 19.3658 18.1112 18.4845 18.6794 16.7796L18.6831 16.7686L18.6865 16.7575C18.9728 15.8271 20.2616 15.4531 21.0661 16.2576L24.7174 19.9089Z" stroke="white" stroke-width="2"/>
</svg>
