<svg width="50" height="50" viewBox="0 0 50 50" fill="none" xmlns="http://www.w3.org/2000/svg">
<g clip-path="url(#clip0)">
<path d="M43.0321 28.8437C44.6907 30.463 46.4412 31.9864 47.9288 33.769C48.5859 34.5612 49.208 35.3786 49.684 36.2979C50.3584 37.6048 49.7475 39.0429 48.5758 39.1209L41.2916 39.1176C39.4129 39.2734 37.9142 38.5172 36.654 37.2326C35.6455 36.2054 34.7115 35.1121 33.7418 34.0502C33.3442 33.6162 32.9281 33.2078 32.431 32.885C31.4367 32.2395 30.5735 32.4371 30.0053 33.4742C29.4265 34.5291 29.2952 35.6971 29.2384 36.8727C29.1603 38.5879 28.6419 39.0389 26.9189 39.1174C23.2368 39.291 19.7423 38.734 16.4959 36.8765C13.6338 35.239 11.4144 32.9272 9.4826 30.3101C5.72156 25.2141 2.84119 19.6143 0.252521 13.8576C-0.330194 12.5606 0.0959777 11.8645 1.52703 11.8397C3.9033 11.7936 6.27928 11.7969 8.65838 11.8364C9.6242 11.8506 10.2636 12.4045 10.6365 13.3169C11.9222 16.4781 13.4953 19.4857 15.4699 22.2735C15.9958 23.0157 16.532 23.758 17.2955 24.2804C18.1402 24.8588 18.7834 24.6671 19.1807 23.7261C19.4329 23.1294 19.5433 22.4867 19.6002 21.8478C19.7885 19.6492 19.8133 17.4544 19.4831 15.2636C19.2804 13.8963 18.5102 13.0111 17.1459 12.7524C16.4497 12.6205 16.5533 12.3614 16.8904 11.9641C17.4759 11.2787 18.0265 10.8521 19.1243 10.8521H27.3565C28.6525 11.1078 28.9403 11.69 29.1178 12.994L29.1248 22.1383C29.1106 22.6431 29.3769 24.1412 30.2862 24.4753C31.014 24.7132 31.4936 24.131 31.9304 23.6695C33.9014 21.5776 35.3081 19.1054 36.5648 16.5454C37.1225 15.4197 37.6021 14.2508 38.0669 13.0827C38.4112 12.216 38.9515 11.7896 39.9278 11.8084L47.8509 11.8154C48.0858 11.8154 48.3235 11.8188 48.5511 11.8578C49.8861 12.0854 50.252 12.6597 49.8396 13.9634C49.1899 16.0088 47.9258 17.7134 46.6897 19.4258C45.3684 21.254 43.9553 23.0197 42.645 24.8588C41.4411 26.5385 41.5367 27.385 43.0321 28.8437Z" fill="white"/>
</g>
<defs>
<clipPath id="clip0">
<rect width="50" height="50" fill="white"/>
</clipPath>
</defs>
</svg>
