<svg width="87" height="87" viewBox="0 0 87 87" fill="none" xmlns="http://www.w3.org/2000/svg">
<path d="M74.9998 40.493V15.593L62.9998 7.02051L50.9998 15.593V40.493H56.9998V25.493H68.9998V40.493H74.9998ZM67.4998 20.993H58.4998V14.993H67.4998V20.993Z" fill="#1E1E25"/>
<path d="M23.9998 47.9932H32.9998V56.9932H23.9998V47.9932Z" fill="#1E1E25"/>
<path d="M8.99976 86.9932H11.9998V68.9932H29.9998V86.9932H47.9998V59.9932H8.99976V86.9932ZM34.4998 64.4932H43.4998V73.4932H34.4998V64.4932Z" fill="#1E1E25"/>
<path d="M47.9998 29.9932H36.9583L47.9998 39.8077V29.9932Z" fill="#1E1E25"/>
<path d="M14.9998 71.9932H26.9998V86.9932H14.9998V71.9932Z" fill="#1E1E25"/>
<path d="M54.5023 53.6152C55.0993 54.1462 56.0938 54.0862 56.6203 53.4922C56.8903 53.1877 57.0208 52.8127 56.9968 52.4047C56.9743 52.0042 56.7973 51.6397 56.4988 51.3742L29.4988 27.3742C29.2213 27.1282 28.8673 26.9932 28.4998 26.9932C28.1323 26.9932 27.7798 27.1282 27.5038 27.3727L0.503754 51.3727C0.203754 51.6397 0.0252542 52.0057 0.00275424 52.4047C-0.0212458 52.8067 0.112254 53.1907 0.377754 53.4892C0.908754 54.0862 1.89725 54.1477 2.49725 53.6152L28.4998 30.5017L54.5023 53.6152Z" fill="#1E1E25"/>
<path d="M50.9998 86.9932H83.9998V68.9932H50.9998V86.9932ZM70.4998 73.4932H79.4998V82.4932H70.4998V73.4932ZM55.4998 73.4932H64.4998V82.4932H55.4998V73.4932Z" fill="#1E1E25"/>
<path d="M8.99976 51.8481V56.9931H20.9998V44.9931H35.9998V56.9931H47.9998V51.8481L28.4998 34.5156L8.99976 51.8481Z" fill="#1E1E25"/>
<path d="M50.9998 62.9932H86.9998V65.9932H50.9998V62.9932Z" fill="#1E1E25"/>
<path d="M81.2698 29.9932H77.9998V43.4932H52.1458L58.4908 49.1332C59.3878 49.9282 59.9218 51.0292 59.9923 52.2292C60.0628 53.4292 59.6623 54.5857 58.8643 55.4842C57.2773 57.2662 54.2953 57.4447 52.5103 55.8562L50.9998 54.5152V59.9932H86.9998V58.6417L81.2698 29.9932Z" fill="#1E1E25"/>
<path d="M59.9998 28.4932H65.9998V40.4932H59.9998V28.4932Z" fill="#1E1E25"/>
<path d="M42.8712 17.7126L62.9997 3.33656L83.1252 17.7126C83.7822 18.1821 84.7572 18.0141 85.2207 17.3646C85.4532 17.0391 85.5447 16.6431 85.4787 16.2471C85.4127 15.8511 85.1967 15.5076 84.8727 15.2781L63.8712 0.272063C63.3612 -0.0894371 62.6427 -0.0924373 62.1297 0.273563L41.1297 15.2721C40.7967 15.5091 40.5882 15.8451 40.5207 16.2456C40.4547 16.6416 40.5462 17.0391 40.7802 17.3661C41.2407 18.0111 42.2202 18.1761 42.8712 17.7126Z" fill="#1E1E25"/>
</svg>
