<svg width="97" height="19" viewBox="0 0 97 19" fill="none" xmlns="http://www.w3.org/2000/svg">
<path d="M0.429199 18V0.226562H6.81348C9.10026 0.226562 10.8377 0.645671 12.0259 1.48389C13.2222 2.3221 13.8203 3.53874 13.8203 5.13379C13.8203 6.05339 13.6087 6.8387 13.1855 7.48975C12.7624 8.14079 12.1398 8.62093 11.3179 8.93018C12.2456 9.17432 12.9577 9.63005 13.4541 10.2974C13.9505 10.9647 14.1987 11.7785 14.1987 12.7388C14.1987 14.4803 13.6453 15.7905 12.5386 16.6694C11.4399 17.5402 9.80827 17.9837 7.64355 18H0.429199ZM4.71387 10.4438V14.7041H7.52148C8.2946 14.7041 8.88867 14.5291 9.30371 14.1792C9.71875 13.8211 9.92627 13.3206 9.92627 12.6777C9.92627 11.1966 9.18978 10.452 7.7168 10.4438H4.71387ZM4.71387 7.63623H6.94775C7.88363 7.62809 8.55094 7.45719 8.94971 7.12354C9.34847 6.78988 9.54785 6.29753 9.54785 5.64648C9.54785 4.89779 9.33219 4.36068 8.90088 4.03516C8.46956 3.7015 7.77376 3.53467 6.81348 3.53467H4.71387V7.63623ZM26.6621 14.6797H20.7905L19.7651 18H15.1875L21.7061 0.226562H25.7344L32.3018 18H27.6997L26.6621 14.6797ZM21.8159 11.3716H25.6367L23.7202 5.20703L21.8159 11.3716ZM47.3286 0.226562V11.8599C47.3286 13.1782 47.0479 14.3216 46.4863 15.29C45.9248 16.2503 45.1191 16.9827 44.0693 17.4873C43.0195 17.9919 41.7785 18.2441 40.3462 18.2441C38.1815 18.2441 36.4766 17.6826 35.2314 16.5596C33.9863 15.4365 33.3516 13.8984 33.3271 11.9453V0.226562H37.6362V12.0308C37.6851 13.9757 38.5884 14.9482 40.3462 14.9482C41.2332 14.9482 41.9046 14.7041 42.3604 14.2158C42.8161 13.7275 43.0439 12.9341 43.0439 11.8354V0.226562H47.3286ZM59.8408 14.6797H53.9692L52.9438 18H48.3662L54.8848 0.226562H58.9131L65.4805 18H60.8784L59.8408 14.6797ZM54.9946 11.3716H58.8154L56.8989 5.20703L54.9946 11.3716ZM73.3906 11.7256H71.0713V18H66.7866V0.226562H73.7812C75.889 0.226562 77.5369 0.694499 78.7251 1.63037C79.9132 2.56624 80.5073 3.88867 80.5073 5.59766C80.5073 6.83464 80.255 7.86003 79.7505 8.67383C79.2541 9.48763 78.4728 10.1468 77.4067 10.6514L81.1177 17.8169V18H76.5278L73.3906 11.7256ZM71.0713 8.41748H73.7812C74.5951 8.41748 75.2054 8.20589 75.6123 7.78271C76.0273 7.3514 76.2349 6.75326 76.2349 5.98828C76.2349 5.22331 76.0273 4.62516 75.6123 4.19385C75.1973 3.75439 74.5869 3.53467 73.7812 3.53467H71.0713V8.41748ZM96.4375 3.53467H91.103V18H86.8184V3.53467H81.5815V0.226562H96.4375V3.53467Z" fill="white"/>
</svg>
